<svg width="100" height="101" viewBox="0 0 100 101" fill="none" xmlns="http://www.w3.org/2000/svg">
<g filter="url(#filter0_i_48499_21568)">
<path d="M27.5 89.4711C26.1193 91.8626 23.0435 92.7016 20.8018 91.0891C13.278 85.6768 7.37788 78.2574 3.80602 69.6342C-0.406062 59.4653 -1.14504 48.1907 1.70371 37.559C4.55246 26.9274 10.8297 17.5328 19.5619 10.8323C28.2941 4.13187 38.9933 0.499997 50 0.499998C61.0067 0.499999 71.7059 4.13187 80.4381 10.8323C89.1703 17.5328 95.4475 26.9274 98.2963 37.5591C101.145 48.1907 100.406 59.4653 96.194 69.6342C92.6221 78.2574 86.722 85.6768 79.1982 91.0891C76.9565 92.7016 73.8807 91.8626 72.5 89.4711C71.1193 87.0797 71.9623 84.0453 74.1629 82.3772C79.7985 78.1055 84.2262 72.3956 86.9552 65.8073C90.3249 57.6722 90.916 48.6526 88.637 40.1472C86.358 31.6419 81.3362 24.1262 74.3505 18.7659C67.3647 13.4055 58.8054 10.5 50 10.5C41.1946 10.5 32.6353 13.4055 25.6495 18.7659C18.6638 24.1262 13.642 31.6419 11.363 40.1472C9.08397 48.6526 9.67515 57.6722 13.0448 65.8073C15.7738 72.3956 20.2015 78.1055 25.8371 82.3772C28.0377 84.0453 28.8807 87.0797 27.5 89.4711Z" fill="#EEEEEE"/>
</g>
<path d="M27.5 89.4711C26.1193 91.8626 23.0436 92.7016 20.8019 91.0891C15.9543 87.6019 11.7591 83.2661 8.42652 78.2785C4.16564 71.9016 1.42881 64.6301 0.427758 57.0263C-0.573296 49.4225 0.188255 41.6904 2.6535 34.428C5.11874 27.1656 9.22159 20.5677 14.6447 15.1447C20.0677 9.72158 26.6657 5.61873 33.928 3.15349C41.1904 0.688248 48.9226 -0.0733007 56.5263 0.927756C64.1301 1.92881 71.4017 4.66564 77.7785 8.92652C82.7662 12.2592 87.1019 16.4543 90.5891 21.3019C92.2017 23.5436 91.3626 26.6193 88.9711 28C86.5797 29.3807 83.5453 28.5378 81.8772 26.3371C79.1947 22.7982 75.9344 19.7212 72.2228 17.2412C67.1213 13.8325 61.3041 11.643 55.2211 10.8422C49.138 10.0414 42.9523 10.6506 37.1424 12.6228C31.3325 14.595 26.0542 17.8773 21.7157 22.2157C17.3773 26.5542 14.095 31.8325 12.1228 37.6424C10.1506 43.4523 9.54136 49.638 10.3422 55.721C11.1431 61.8041 13.3325 67.6213 16.7412 72.7228C19.2212 76.4344 22.2982 79.6947 25.8371 82.3772C28.0378 84.0453 28.8807 87.0797 27.5 89.4711Z" fill="#FF981F"/>
<path d="M73.5675 74.0736C79.6014 68.0412 83.3337 59.7066 83.3337 50.5003C83.3337 32.0908 68.4098 17.167 50.0003 17.167C31.5908 17.167 16.667 32.0908 16.667 50.5003C16.667 59.7053 20.3981 68.0387 26.4305 74.0709" stroke="#BDBDBD" stroke-width="2" stroke-linejoin="round" stroke-dasharray="0.67 10.67"/>
<path d="M80.1794 30.5293C79.8607 30.032 79.3671 29.6723 78.796 29.5213C78.225 29.3704 77.6181 29.4391 77.0953 29.714L47.6918 45.2904C47.0083 45.6459 46.4072 46.1408 45.9271 46.7432C45.447 47.3457 45.0987 48.0422 44.9047 48.7877C44.7107 49.5332 44.6754 50.3111 44.801 51.0711C44.9266 51.8312 45.2103 52.5564 45.6338 53.1998C46.0573 53.8433 46.6111 54.3908 47.2595 54.8067C47.9078 55.2227 48.6363 55.498 49.3977 55.6147C50.1592 55.7314 50.9366 55.687 51.6798 55.4844C52.423 55.2817 53.1154 54.9254 53.7122 54.4383L79.6665 33.6192C80.117 33.2561 80.4182 32.74 80.513 32.1692C80.6079 31.5984 80.4896 31.0127 80.1807 30.5234L80.1794 30.5293Z" fill="url(#paint0_linear_48499_21568)"/>
<circle cx="51" cy="50.5" r="7" fill="white" stroke="#FF981F" stroke-width="2"/>
<defs>
<filter id="filter0_i_48499_21568" x="-1.5" y="0.5" width="101.5" height="91.4199" filterUnits="userSpaceOnUse" color-interpolation-filters="sRGB">
<feFlood flood-opacity="0" result="BackgroundImageFix"/>
<feBlend mode="normal" in="SourceGraphic" in2="BackgroundImageFix" result="shape"/>
<feColorMatrix in="SourceAlpha" type="matrix" values="0 0 0 0 0 0 0 0 0 0 0 0 0 0 0 0 0 0 127 0" result="hardAlpha"/>
<feOffset dx="-1.5"/>
<feGaussianBlur stdDeviation="1.25"/>
<feComposite in2="hardAlpha" operator="arithmetic" k2="-1" k3="1"/>
<feColorMatrix type="matrix" values="0 0 0 0 0 0 0 0 0 0 0 0 0 0 0 0 0 0 0.12 0"/>
<feBlend mode="normal" in2="shape" result="effect1_innerShadow_48499_21568"/>
</filter>
<linearGradient id="paint0_linear_48499_21568" x1="80.3744" y1="30.6707" x2="45.4337" y2="52.8149" gradientUnits="userSpaceOnUse">
<stop stop-color="#FF981F"/>
<stop offset="0.747383" stop-color="#FF981F" stop-opacity="0.04"/>
<stop offset="0.872383" stop-color="#FF981F" stop-opacity="0.02"/>
<stop offset="1" stop-color="#FF981F" stop-opacity="0"/>
</linearGradient>
</defs>
</svg>
